<svg xmlns="http://www.w3.org/2000/svg" version="1.1" xmlns:xlink="http://www.w3.org/1999/xlink" xmlns:svgjs="http://svgjs.dev/svgjs" width="1440" height="560" preserveAspectRatio="none" viewBox="0 0 1440 560">
    <g mask="url(&quot;#SvgjsMask1018&quot;)" fill="none">
        <rect width="1440" height="560" x="0" y="0" fill="rgba(0, 0, 0, 1)"></rect>
        <path d="M571.694,33.322C590.902,34.186,609.421,25.087,619.583,8.765C630.349,-8.527,632.532,-30.488,622.438,-48.181C612.262,-66.017,592.222,-75.714,571.694,-75.174C552.072,-74.658,534.323,-63.097,525.371,-45.628C517.114,-29.514,521.566,-10.849,530.729,4.767C539.757,20.154,553.872,32.52,571.694,33.322" fill="rgba(255, 255, 255, 0.19)" class="triangle-float2"></path>
        <path d="M443.27,42.118C460.549,41.747,474.524,29.475,482.88,14.346C490.929,-0.228,491.827,-17.365,484.334,-32.232C475.962,-48.843,461.859,-63.551,443.27,-64.246C423.679,-64.979,405.712,-52.831,396.517,-35.516C387.839,-19.174,391.051,0.263,400.597,16.114C409.807,31.408,425.421,42.502,443.27,42.118" fill="rgba(255, 255, 255, 0.19)" class="triangle-float2"></path>
        <path d="M187.942,286.371C242.249,284.492,300.825,273.234,327.497,225.891C353.828,179.152,334.333,122.697,305.712,77.324C279.335,35.507,237.204,8.854,187.942,4.651C128.837,-0.392,62.671,4.681,29.327,53.742C-7.308,107.645,-6.119,182.313,30.597,236.161C63.838,284.914,128.97,288.411,187.942,286.371" fill="rgba(255, 255, 255, 0.19)" class="triangle-float3"></path>
        <path d="M170.225,391.269C199.867,390.425,231.21,386.476,247.877,361.949C266.524,334.509,270.379,297.591,253.151,269.239C236.446,241.748,202.328,232.095,170.225,234.157C141.717,235.988,119.425,254.843,103.905,278.826C86.458,305.787,68.202,338.938,84.517,366.599C100.705,394.045,138.374,392.176,170.225,391.269" fill="rgba(255, 255, 255, 0.19)" class="triangle-float3"></path>
        <path d="M1078.082,414.254C1127.293,416.06,1175.091,392.806,1200.283,350.494C1226.036,307.24,1223.698,253.968,1199.935,209.59C1174.654,162.376,1131.612,120.621,1078.082,122.276C1026.45,123.872,991.33,170.346,968.617,216.742C948.929,256.959,948.78,302.897,970.486,342.062C992.926,382.551,1031.822,412.557,1078.082,414.254" fill="rgba(255, 255, 255, 0.19)" class="triangle-float1"></path>
    </g>
    <defs>
        <mask id="SvgjsMask1018">
            <rect width="1440" height="560" fill="#ffffff"></rect>
        </mask>
        <style>
            @keyframes float1 {
                    0%{transform: translate(0, 0)}
                    50%{transform: translate(-10px, 0)}
                    100%{transform: translate(0, 0)}
                }

                .triangle-float1 {
                    animation: float1 5s infinite;
                }

                @keyframes float2 {
                    0%{transform: translate(0, 0)}
                    50%{transform: translate(-5px, -5px)}
                    100%{transform: translate(0, 0)}
                }

                .triangle-float2 {
                    animation: float2 4s infinite;
                }

                @keyframes float3 {
                    0%{transform: translate(0, 0)}
                    50%{transform: translate(0, -10px)}
                    100%{transform: translate(0, 0)}
                }

                .triangle-float3 {
                    animation: float3 6s infinite;
                }
        </style>
    </defs>
</svg>